<svg width="51" height="51" viewBox="0 0 51 51" fill="none" xmlns="http://www.w3.org/2000/svg">
<g id="15972340571535698998 1">
<path id="Vector" d="M47.3084 38.738C47.3323 38.6643 47.3485 38.5865 47.3485 38.5047V11.505C47.3485 11.4226 47.3323 11.3444 47.3079 11.2702C47.3043 11.26 47.3023 11.2499 47.2982 11.2397C47.2657 11.1528 47.2179 11.0745 47.158 11.0059C47.1539 11.0013 47.1534 10.9957 47.1493 10.9912C47.1468 10.9886 47.1437 10.9876 47.1412 10.9851C47.0772 10.917 47.0014 10.8621 46.9166 10.8209C46.91 10.8179 46.9049 10.8138 46.8983 10.8108C46.818 10.7747 46.7306 10.7543 46.6386 10.7482C46.6294 10.7477 46.6208 10.7457 46.6116 10.7457C46.603 10.7452 46.5954 10.7432 46.5867 10.7432H4.30187C4.29323 10.7432 4.2851 10.7452 4.27646 10.7457C4.26833 10.7462 4.2602 10.7477 4.25207 10.7482C4.15907 10.7543 4.07013 10.7752 3.98882 10.8118C3.98374 10.8138 3.97967 10.8174 3.97459 10.8194C3.8882 10.8606 3.81146 10.9165 3.74692 10.9856C3.74438 10.9881 3.74133 10.9886 3.73879 10.9912C3.73472 10.9952 3.73421 11.0008 3.73015 11.0054C3.67018 11.074 3.6219 11.1528 3.58937 11.2397C3.58531 11.2499 3.58328 11.26 3.57972 11.2707C3.55532 11.3449 3.53906 11.4232 3.53906 11.5055V38.5057C3.53906 38.5891 3.55583 38.6684 3.58073 38.7436C3.58429 38.7537 3.58633 38.7634 3.58988 38.7735C3.62292 38.861 3.6717 38.9397 3.73218 39.0083C3.73574 39.0124 3.73675 39.0175 3.74031 39.0216C3.74336 39.0251 3.74742 39.0271 3.75098 39.0307C3.77588 39.0566 3.80333 39.0795 3.83179 39.1019C3.84449 39.1115 3.85567 39.1232 3.86888 39.1323C3.90243 39.1557 3.93851 39.1745 3.97561 39.1918C3.98475 39.1959 3.99289 39.2025 4.00203 39.206C4.09402 39.2452 4.19515 39.2675 4.30136 39.2675H46.5857C46.6919 39.2675 46.7931 39.2457 46.8851 39.206C46.8993 39.1999 46.9125 39.1908 46.9262 39.1837C46.9577 39.1679 46.9892 39.1517 47.0182 39.1318C47.0334 39.1212 47.0472 39.1074 47.0619 39.0958C47.0878 39.0749 47.1132 39.0541 47.1356 39.0302C47.1397 39.0261 47.1442 39.0231 47.1483 39.019C47.1524 39.0144 47.1534 39.0083 47.1574 39.0038C47.2169 38.9357 47.2647 38.8574 47.2972 38.771C47.3023 38.7598 47.3048 38.7492 47.3084 38.738ZM5.06417 13.2339L17.8947 24.9538L5.06417 36.7671V13.2339ZM31.3615 24.3795C31.3087 24.414 31.2528 24.443 31.2086 24.4918C31.1918 24.5101 31.1862 24.534 31.1715 24.5533L25.444 29.7848L6.26658 12.2673H44.6215L31.3615 24.3795ZM19.025 25.9859L24.9298 31.3796C25.0756 31.5127 25.2596 31.5793 25.444 31.5793C25.6285 31.5793 25.8125 31.5127 25.9578 31.3796L31.7894 26.053L44.618 37.7429H6.2554L19.025 25.9859ZM32.9202 25.0203L45.8239 13.2339V36.7793L32.9202 25.0203Z" fill="white"/>
</g>
</svg>
