<svg width="66" height="66" viewBox="0 0 66 66" fill="none" xmlns="http://www.w3.org/2000/svg">
<path fill-rule="evenodd" clip-rule="evenodd" d="M8.25 18.5625C8.25 18.0155 8.4673 17.4909 8.85409 17.1041C9.24089 16.7173 9.76549 16.5 10.3125 16.5H55.6875C56.2345 16.5 56.7591 16.7173 57.1459 17.1041C57.5327 17.4909 57.75 18.0155 57.75 18.5625C57.75 19.1095 57.5327 19.6341 57.1459 20.0209C56.7591 20.4077 56.2345 20.625 55.6875 20.625H10.3125C9.76549 20.625 9.24089 20.4077 8.85409 20.0209C8.4673 19.6341 8.25 19.1095 8.25 18.5625ZM8.25 33C8.25 32.453 8.4673 31.9284 8.85409 31.5416C9.24089 31.1548 9.76549 30.9375 10.3125 30.9375H55.6875C56.2345 30.9375 56.7591 31.1548 57.1459 31.5416C57.5327 31.9284 57.75 32.453 57.75 33C57.75 33.547 57.5327 34.0716 57.1459 34.4584C56.7591 34.8452 56.2345 35.0625 55.6875 35.0625H10.3125C9.76549 35.0625 9.24089 34.8452 8.85409 34.4584C8.4673 34.0716 8.25 33.547 8.25 33ZM8.25 47.4375C8.25 46.8905 8.4673 46.3659 8.85409 45.9791C9.24089 45.5923 9.76549 45.375 10.3125 45.375H55.6875C56.2345 45.375 56.7591 45.5923 57.1459 45.9791C57.5327 46.3659 57.75 46.8905 57.75 47.4375C57.75 47.9845 57.5327 48.5091 57.1459 48.8959C56.7591 49.2827 56.2345 49.5 55.6875 49.5H10.3125C9.76549 49.5 9.24089 49.2827 8.85409 48.8959C8.4673 48.5091 8.25 47.9845 8.25 47.4375Z" fill="#262526"/>
</svg>
