<svg width="32" height="33" viewBox="0 0 32 33" fill="none" xmlns="http://www.w3.org/2000/svg">
<g id="17041734501530272912 1" clip-path="url(#clip0_1_74)">
<path id="Vector" d="M31.038 25.288L25.038 21.2787C24.0393 20.6107 23.0773 20.634 22.2453 21.318C19.9093 23.2333 18.524 22.684 18.2987 22.5707C16.9773 21.9093 15.7293 21.2853 13.8047 19.362C11.4153 16.9713 10.5527 15.4453 9.93 14.202C9.68133 13.7047 9.39467 12.0327 11.03 10.2893C11.7947 9.47533 11.8653 8.47533 11.2293 7.47533C10.7393 6.70467 10.7393 6.70467 10.354 6.138C9.974 5.578 9.21467 4.45933 7.212 1.462C6.77933 0.815333 6.16467 0.5 5.33333 0.5C4.39067 0.5 3.91333 0.978 3.52867 1.362L1.52867 3.362C0.112667 4.77733 0 5.58867 0 6.5C0 7.64733 1.65667 15.126 9.528 22.97C17.374 30.8427 24.8453 32.5 25.992 32.5H26.036C26.9393 32.4867 27.742 32.3673 29.1373 30.9713L31.1373 28.9713C31.522 28.5873 32 28.1093 32 27.1667C32 26.3347 31.6847 25.72 31.038 25.288ZM30.1953 28.0287L28.1953 30.0287C27.0727 31.1513 26.5847 31.1587 25.992 31.1667C25.91 31.164 18.7313 30.318 10.4707 22.0273C2.27667 13.862 1.33467 6.564 1.33333 6.5C1.33333 5.90867 1.33333 5.44267 2.47067 4.30467L4.47067 2.30467C4.822 1.95467 4.962 1.83333 5.33333 1.83333C5.76867 1.83333 5.95133 1.97533 6.104 2.20333C8.11 5.206 8.87067 6.32733 9.25133 6.88667C9.62667 7.43867 9.62667 7.43867 10.1047 8.19133C10.4833 8.78667 10.306 9.11333 10.058 9.37733C7.97733 11.5933 8.28467 13.8913 8.73733 14.798C9.406 16.1353 10.3307 17.7733 12.862 20.3047C14.9387 22.3813 16.344 23.0833 17.702 23.7633C18.076 23.9493 18.564 24.0527 19.0773 24.0527C19.9613 24.0527 21.374 23.7573 23.0907 22.3493C23.334 22.1487 23.5073 22.1253 23.6167 22.1253C23.808 22.1253 24.0373 22.214 24.2973 22.3887L30.2973 26.3967C30.5247 26.548 30.6667 26.7307 30.6667 27.1667C30.6667 27.538 30.5453 27.6787 30.1953 28.0287Z" fill="white"/>
</g>
<defs>
<clipPath id="clip0_1_74">
<rect width="32" height="32" fill="white" transform="translate(0 0.5)"/>
</clipPath>
</defs>
</svg>
